<svg xmlns="http://www.w3.org/2000/svg" viewBox="0 0 198.43 49.55"><g id="Camada_2" data-name="Camada 2"><g id="Layer_1" data-name="Layer 1"><path d="M28.51,10.89A12.73,12.73,0,0,0,27.93,7a44.71,44.71,0,0,1,4-3.06.23.23,0,0,0-.22-.4C16.1,10.19,11.91,26,11,31a1.28,1.28,0,0,0,1.26,1.51H29.6a1,1,0,0,0,.77-1.67L21.54,20.39A9.91,9.91,0,0,0,28.51,10.89Z" style="fill:#fff"/><path d="M44.41,3a14.67,14.67,0,0,1,15,15,14.65,14.65,0,0,1-15,15A14.63,14.63,0,0,1,29.46,18,14.65,14.65,0,0,1,44.41,3Zm.05,22.28A6.9,6.9,0,0,0,51.4,18c0-4.11-2.83-7.28-6.94-7.28S37.52,13.89,37.52,18A6.93,6.93,0,0,0,44.46,25.24Z" style="fill:#fff"/><path d="M61.5,4.67a1.28,1.28,0,0,1,1.28-1.28H75c8.61,0,15,5.14,15,14.61S83.65,32.52,75,32.52H62.78a1.28,1.28,0,0,1-1.28-1.28Zm8.22,7.11V24.13A1.28,1.28,0,0,0,71,25.41h3.69c4.12,0,6.9-2.7,6.9-7.41s-2.78-7.5-6.9-7.5H71A1.29,1.29,0,0,0,69.72,11.78Z" style="fill:#fff"/><path d="M106.64,3a14.67,14.67,0,0,1,15,15,15,15,0,0,1-30,0A14.65,14.65,0,0,1,106.64,3Zm0,22.28A6.9,6.9,0,0,0,113.63,18c0-4.11-2.83-7.28-6.94-7.28S99.75,13.89,99.75,18A6.93,6.93,0,0,0,106.69,25.24Z" style="fill:#fff"/><path d="M124.23,27.06a.71.71,0,0,1,1-.46,18.11,18.11,0,0,0,8.46,2.24c4.24,0,7.15-1.63,7.15-4.5,0-2.06-1.5-3.21-5.05-4.07L130.58,19c-4.88-1.15-7.28-3.76-7.28-7.58,0-4.58,3.56-8.39,11.27-8.39a24.32,24.32,0,0,1,9.64,2,.71.71,0,0,1,.37.86l-.85,2.71a.71.71,0,0,1-1,.42,20.47,20.47,0,0,0-8.34-1.91c-4.54,0-6.46,1.71-6.46,3.9,0,2,1.37,3,4,3.72l5.66,1.46c5.14,1.37,7.88,3.68,7.88,7.8,0,5.39-5,9-11.87,9a23.51,23.51,0,0,1-9.74-2.26.71.71,0,0,1-.36-.8Z" style="fill:#ce7e00"/><path d="M147.9,31.82V4.09a.7.7,0,0,1,.7-.7h21.22a.7.7,0,0,1,.7.7V6.64a.69.69,0,0,1-.7.69H152.88a.69.69,0,0,0-.69.7v6.79a.7.7,0,0,0,.69.7H166.7a.69.69,0,0,1,.69.69v2.55a.7.7,0,0,1-.69.7H152.88a.69.69,0,0,0-.69.69v7.73a.69.69,0,0,0,.69.7h16.94a.7.7,0,0,1,.7.7v2.54a.7.7,0,0,1-.7.7H148.6A.7.7,0,0,1,147.9,31.82Z" style="fill:#ce7e00"/><path d="M25,4.11a.71.71,0,0,0,.28-1.22C23.18,1,20.1,0,16.43,0H1.36A1.36,1.36,0,0,0,0,1.36V24.19a1,1,0,0,0,1.9.39A35,35,0,0,1,25,4.11Z" style="fill:#ce7e00"/><path d="M187.25,16.53,185.68,19a.69.69,0,0,0,.59,1.06h7a.69.69,0,0,1,.69.69v5.56a.68.68,0,0,1-.33.59,14.8,14.8,0,0,1-7.21,1.85c-6.34,0-11.18-4-11.18-10.79s4.84-10.88,11-10.88a12.81,12.81,0,0,1,8.32,2.8.68.68,0,0,0,1-.17L197,7.51a.71.71,0,0,0-.15-.91A16.55,16.55,0,0,0,186.17,3c-8.61,0-15.5,5.57-15.5,15s6.89,15,15.5,15a22.4,22.4,0,0,0,12-3.65.68.68,0,0,0,.28-.55V16.89a.69.69,0,0,0-.7-.69h-9.89A.69.69,0,0,0,187.25,16.53Z" style="fill:#ce7e00"/><path d="M11.15,47a5.32,5.32,0,0,0,2.82.86c1.07,0,1.73-.34,1.73-1,0-.48-.32-.76-1.24-1L13,45.51c-1.58-.39-2.27-1.24-2.27-2.44,0-1.47,1.1-2.66,3.47-2.66a7.38,7.38,0,0,1,3.19.71l-.52,1.67a6.05,6.05,0,0,0-2.73-.71c-1.07,0-1.52.33-1.52.84s.33.66,1,.85l1.63.45c1.61.45,2.39,1.24,2.39,2.51,0,1.67-1.54,2.8-3.68,2.8a7.38,7.38,0,0,1-3.21-.77Zm17.4,2.4V40.53h7v1.6H30.3v1.92h4.32v1.61H30.3V47.8h5.27v1.6ZM54.4,48.32a6.86,6.86,0,0,1-3.79,1.21,4.57,4.57,0,1,1,0-9.13,5.31,5.31,0,0,1,3.45,1.2L53.21,43a3.8,3.8,0,0,0-2.56-.9,2.87,2.87,0,1,0,.08,5.74,3.64,3.64,0,0,0,1.84-.47V45.74H50.23V44.16H54.4Zm12.84-2.78a2,2,0,0,0,2.2,2.31,2.08,2.08,0,0,0,2.23-2.32v-5H73.5v5.13a3.77,3.77,0,0,1-4.06,3.89,3.66,3.66,0,0,1-4-3.89V40.53h1.82Zm17.67-5h3.9c2.18,0,3.54.89,3.54,2.88A2.79,2.79,0,0,1,90,46.14l2.83,3v.3h-2l-3-3.19h-1.1V49.4H84.91Zm1.82,1.59v2.65H89a1.3,1.3,0,0,0,1.44-1.32A1.29,1.29,0,0,0,89,42.12ZM106,40.53h2.14l3.43,8.87H109.7L109,47.63h-4l-.69,1.77h-1.85Zm-.53,5.74h3.11l-1.51-3.93Zm16.61-5.74h3.82c2.63,0,4.58,1.57,4.58,4.45s-2,4.42-4.58,4.42h-3.82Zm1.83,1.59v5.69h1.91A2.59,2.59,0,0,0,128.57,45a2.6,2.6,0,0,0-2.77-2.86Zm21.6-1.72A4.57,4.57,0,1,1,140.93,45,4.47,4.47,0,0,1,145.49,40.4Zm0,7.42A2.85,2.85,0,1,0,142.74,45,2.72,2.72,0,0,0,145.5,47.82Zm15.56-7.29H165c2.18,0,3.53.89,3.53,2.88a2.78,2.78,0,0,1-2.33,2.73l2.83,3v.3H167l-3-3.19h-1.1V49.4h-1.83Zm1.83,1.59v2.65h2.27a1.3,1.3,0,0,0,1.44-1.32,1.29,1.29,0,0,0-1.44-1.33Zm19.24-1.59h2.14l3.44,8.87h-1.86l-.68-1.77h-4l-.69,1.77H178.6Zm-.52,5.74h3.11l-1.52-3.93Z" style="fill:#647a84"/></g></g></svg>