<?xml version="1.0" encoding="UTF-8"?>
<svg id="Camada_2" data-name="Camada 2" xmlns="http://www.w3.org/2000/svg" xmlns:xlink="http://www.w3.org/1999/xlink" viewBox="0 0 226.77 283.46">
  <defs>
    <style>
      .cls-1 {
        fill: #fff;
      }

      .cls-2 {
        fill: url(#linear-gradient);
      }
    </style>
    <linearGradient id="linear-gradient" x1="113.39" y1="166.07" x2="113.39" y2="0" gradientUnits="userSpaceOnUse">
      <stop offset="0" stop-color="#adce6d"/>
      <stop offset="1" stop-color="#2581c4"/>
    </linearGradient>
  </defs>
  <g id="Layer_1" data-name="Layer 1">
    <g>
      <path class="cls-2" d="M0,164.58V60.58c0-.54,.29-1.04,.76-1.3L104.67,.2c1-.57,2.24,.15,2.24,1.3V154.28c0,.83,.67,1.5,1.5,1.5h10.29c.83,0,1.5-.67,1.5-1.5V24.81c0-1.14,1.23-1.87,2.23-1.31l103.59,58.05c.47,.26,.77,.76,.77,1.31v81.42c0,.83-.67,1.5-1.5,1.5h-7.3c-.83,0-1.5-.67-1.5-1.5V88.89c0-.54-.29-1.04-.77-1.31l-82.99-46.51c-1-.56-2.23,.16-2.23,1.31v122.19c0,.83-.67,1.5-1.5,1.5h-30.89c-.83,0-1.5-.67-1.5-1.5V19.2c0-1.15-1.24-1.87-2.24-1.3l-7.06,4.02c-.47,.27-.76,.76-.76,1.3V164.58c0,.83-.67,1.5-1.5,1.5h-7.3c-.83,0-1.5-.67-1.5-1.5V30.77c0-1.15-1.24-1.87-2.24-1.3L11.06,65.27c-.47,.27-.76,.76-.76,1.3v98.01c0,.83-.67,1.5-1.5,1.5H1.5c-.83,0-1.5-.67-1.5-1.5ZM21,72.86v91.72c0,.83,.67,1.5,1.5,1.5h7.3c.83,0,1.5-.67,1.5-1.5V78.85c0-.54,.29-1.04,.76-1.3l31.19-17.73c.72-.41,.97-1.32,.56-2.04l-3.61-6.35c-.41-.72-1.32-.97-2.04-.56l-36.39,20.69c-.47,.27-.76,.76-.76,1.3Zm121.65-13.01l-3.59,6.36c-.41,.72-.15,1.63,.57,2.04l55.4,31.31c.47,.27,.76,.76,.76,1.3v63.72c0,.83,.67,1.5,1.5,1.5h7.3c.83,0,1.5-.67,1.5-1.5V94.85c0-.54-.29-1.04-.76-1.3l-60.63-34.26c-.72-.41-1.63-.15-2.04,.57Z"/>
      <g>
        <path class="cls-1" d="M97.49,178.08l-28.4,71.25c-.37,.94-1.59,1.17-2.29,.44l-15.14-15.84c-.72-.76-.37-2,.64-2.28,11.89-3.36,20.61-13.18,20.61-26.18,0-19.57-13.3-28.27-34.66-28.27H1.38C.62,177.2,0,177.82,0,178.59v84.21c0,.76,.62,1.38,1.38,1.38h15.14c.76,0,1.38-.62,1.38-1.38v-28.57c0-.76,.62-1.38,1.38-1.38h8.76c.39,0,.75,.16,1.01,.44l28.21,30.45c.26,.28,.63,.44,1.01,.44h22.1c.57,0,1.08-.35,1.29-.88l6.09-15.63c.21-.53,.72-.88,1.29-.88h37.63c.57,0,1.09,.35,1.29,.89l5.97,15.62c.2,.54,.72,.89,1.29,.89h15.19c.97,0,1.64-.98,1.29-1.88l-32.57-84.21c-.21-.53-.72-.88-1.29-.88h-19.09c-.57,0-1.08,.35-1.29,.87ZM17.91,217.39v-23.2c0-.76,.62-1.38,1.38-1.38h20.87c8.19,0,14.07,4.48,14.07,13.05,0,8.06-5.88,12.92-14.07,12.92H19.29c-.76,0-1.38-.62-1.38-1.38Zm75.58,14.19l13.52-33.35c.47-1.16,2.12-1.15,2.57,.02l12.85,33.35c.35,.91-.32,1.88-1.29,1.88h-26.37c-.98,0-1.65-.99-1.28-1.9Z"/>
        <path class="cls-1" d="M185.97,214.15v12.71c0,.76,.62,1.38,1.38,1.38h20.13c.76,0,1.38,.62,1.38,1.38v13.8c0,.5-.26,.97-.7,1.21-4.65,2.58-10.76,4.2-17.34,4.2-16.63,0-28.91-10.23-28.91-28.01s12.28-28.27,28.14-28.27c9.62,0,17.32,2.83,23.84,7.84,.66,.51,1.61,.35,2.04-.36l6.86-11.29c.36-.6,.23-1.38-.32-1.81-8.54-6.61-19.25-11.01-32.81-11.01-25.71,0-46.3,16.63-46.3,44.9s20.59,44.64,46.3,44.64c13.01,0,28.35-5.26,36.56-11.48,.34-.26,.54-.67,.54-1.1v-38.74c0-.76-.62-1.38-1.38-1.38h-38.04c-.76,0-1.38,.62-1.38,1.38Z"/>
      </g>
      <path class="cls-1" d="M4.32,272.46h2.61l4.19,10.84h-2.26l-.83-2.17H3.11l-.85,2.17H0l4.32-10.84Zm-.64,7.02h3.79l-1.85-4.8-1.95,4.8Zm9.89,.89c.78,.51,2.04,1.05,3.44,1.05,1.31,0,2.12-.42,2.12-1.21,0-.59-.4-.92-1.51-1.21l-1.79-.45c-1.93-.48-2.77-1.52-2.77-2.98,0-1.8,1.34-3.25,4.24-3.25,1.56,0,3.06,.43,3.89,.86l-.64,2.04c-.8-.46-2.15-.86-3.33-.86-1.31,0-1.85,.4-1.85,1.02s.4,.81,1.18,1.04l1.99,.56c1.96,.54,2.92,1.52,2.92,3.06,0,2.04-1.88,3.43-4.5,3.43-1.58,0-3.22-.54-3.92-.94l.53-2.15Zm10.98,0c.78,.51,2.04,1.05,3.44,1.05,1.31,0,2.12-.42,2.12-1.21,0-.59-.4-.92-1.51-1.21l-1.79-.45c-1.93-.48-2.77-1.52-2.77-2.98,0-1.8,1.34-3.25,4.24-3.25,1.56,0,3.06,.43,3.89,.86l-.64,2.04c-.8-.46-2.15-.86-3.33-.86-1.31,0-1.85,.4-1.85,1.02s.4,.81,1.18,1.04l1.99,.56c1.96,.54,2.92,1.52,2.92,3.06,0,2.04-1.88,3.43-4.5,3.43-1.58,0-3.22-.54-3.92-.94l.53-2.15Zm11.06,2.93v-10.84h8.58v1.96h-6.44v2.34h5.28v1.96h-5.28v2.61h6.44v1.96h-8.58Zm11.77-2.93c.78,.51,2.04,1.05,3.44,1.05,1.31,0,2.12-.42,2.12-1.21,0-.59-.4-.92-1.51-1.21l-1.79-.45c-1.93-.48-2.77-1.52-2.77-2.98,0-1.8,1.34-3.25,4.24-3.25,1.56,0,3.06,.43,3.89,.86l-.64,2.04c-.8-.46-2.15-.86-3.33-.86-1.31,0-1.85,.4-1.85,1.02s.4,.81,1.18,1.04l1.99,.56c1.96,.54,2.92,1.52,2.92,3.06,0,2.04-1.88,3.43-4.5,3.43-1.58,0-3.22-.54-3.92-.94l.53-2.15Zm10.98,0c.78,.51,2.04,1.05,3.44,1.05,1.31,0,2.12-.42,2.12-1.21,0-.59-.4-.92-1.51-1.21l-1.79-.45c-1.93-.48-2.77-1.52-2.77-2.98,0-1.8,1.34-3.25,4.24-3.25,1.56,0,3.06,.43,3.89,.86l-.64,2.04c-.8-.46-2.15-.86-3.33-.86-1.31,0-1.85,.4-1.85,1.02s.4,.81,1.18,1.04l1.99,.56c1.96,.54,2.92,1.52,2.92,3.06,0,2.04-1.88,3.43-4.5,3.43-1.58,0-3.22-.54-3.92-.94l.53-2.15Zm15.95-8.07c3.2,0,5.6,2.39,5.6,5.6s-2.39,5.56-5.6,5.56-5.56-2.39-5.56-5.56,2.39-5.6,5.56-5.6Zm.02,9.07c1.99,0,3.38-1.52,3.38-3.48s-1.39-3.48-3.38-3.48-3.38,1.48-3.38,3.48,1.42,3.48,3.38,3.48Zm8.81-8.91h4.77c2.66,0,4.32,1.08,4.32,3.52,0,1.72-1.23,3-2.85,3.33l3.46,3.62v.37h-2.5l-3.62-3.91h-1.34v3.91h-2.23v-10.84Zm2.23,1.94v3.24h2.77c1.02,0,1.75-.61,1.75-1.61,0-1.07-.73-1.63-1.75-1.63h-2.77Zm10.31-1.94h2.23v10.84h-2.23v-10.84Zm9.12,0h2.61l4.19,10.84h-2.26l-.83-2.17h-4.93l-.85,2.17h-2.26l4.32-10.84Zm-.64,7.02h3.79l-1.85-4.8-1.95,4.8Zm22.89,1.91c1.4,0,2.44-.49,3.17-1.07l1.05,1.58c-1.13,1.04-2.58,1.56-4.24,1.56-3.24,0-5.68-2.41-5.68-5.58s2.44-5.58,5.68-5.58c1.66,0,3.11,.53,4.24,1.56l-1.05,1.58c-.73-.57-1.77-1.07-3.17-1.07-2.01,0-3.38,1.55-3.38,3.51s1.37,3.51,3.38,3.51Zm11.92-9.09c3.21,0,5.6,2.39,5.6,5.6s-2.39,5.56-5.6,5.56-5.56-2.39-5.56-5.56,2.39-5.6,5.56-5.6Zm.02,9.07c1.99,0,3.38-1.52,3.38-3.48s-1.39-3.48-3.38-3.48-3.38,1.48-3.38,3.48,1.42,3.48,3.38,3.48Zm18.69-5.39l-3.64,4.37h-.4l-3.62-4.37v7.32h-2.23v-10.84h2.01l4.05,4.83,4.05-4.83h2.01v10.84h-2.23v-7.32Zm6.13,7.32v-10.84h8.58v1.96h-6.44v2.34h5.28v1.96h-5.28v2.61h6.44v1.96h-8.58Zm11.85-10.84h4.77c2.66,0,4.32,1.08,4.32,3.52,0,1.72-1.23,3-2.85,3.33l3.46,3.62v.37h-2.5l-3.62-3.91h-1.34v3.91h-2.23v-10.84Zm2.23,1.94v3.24h2.77c1.02,0,1.75-.61,1.75-1.61,0-1.07-.73-1.63-1.75-1.63h-2.77Zm15.17,6.98c1.4,0,2.44-.49,3.17-1.07l1.05,1.58c-1.13,1.04-2.58,1.56-4.24,1.56-3.24,0-5.68-2.41-5.68-5.58s2.44-5.58,5.68-5.58c1.66,0,3.11,.53,4.24,1.56l-1.05,1.58c-.73-.57-1.77-1.07-3.17-1.07-2.01,0-3.38,1.55-3.38,3.51s1.37,3.51,3.38,3.51Zm7.28-8.93h2.23v10.84h-2.23v-10.84Zm9.12,0h2.61l4.19,10.84h-2.26l-.83-2.17h-4.93l-.85,2.17h-2.26l4.32-10.84Zm-.64,7.02h3.79l-1.85-4.8-1.94,4.8Zm10.08,3.83v-10.84h2.23v8.9h5.63v1.94h-7.86Z"/>
    </g>
  </g>
</svg>