<?xml version="1.0" encoding="utf-8"?>
<!-- Generator: Adobe Illustrator 16.0.0, SVG Export Plug-In . SVG Version: 6.00 Build 0)  -->
<!DOCTYPE svg PUBLIC "-//W3C//DTD SVG 1.1//EN" "http://www.w3.org/Graphics/SVG/1.1/DTD/svg11.dtd">
<svg version="1.1" id="OBJECTS" xmlns="http://www.w3.org/2000/svg" xmlns:xlink="http://www.w3.org/1999/xlink" x="0px" y="0px"
	 width="793.701px" height="299.984px" viewBox="0 0 793.701 299.984" enable-background="new 0 0 793.701 299.984"
	 xml:space="preserve">
<g>
	<linearGradient id="SVGID_1_" gradientUnits="userSpaceOnUse" x1="438.0596" y1="235.7988" x2="438.0596" y2="60.7993">
		<stop  offset="0" style="stop-color:#20B038"/>
		<stop  offset="1" style="stop-color:#60D66A"/>
	</linearGradient>
	<path fill="url(#SVGID_1_)" d="M748.56,150.76c0,46.966-38.073,85.039-85.039,85.039H212.599
		c-46.966,0-85.039-38.073-85.039-85.039v-4.921c0-46.967,38.073-85.04,85.039-85.04h450.922c46.966,0,85.039,38.073,85.039,85.04
		V150.76z"/>
	<linearGradient id="shape_3_1_" gradientUnits="userSpaceOnUse" x1="164.5586" y1="265.7939" x2="164.5586" y2="34.1938">
		<stop  offset="0" style="stop-color:#20B038"/>
		<stop  offset="1" style="stop-color:#60D66A"/>
	</linearGradient>
	<path id="shape_3" fill="url(#shape_3_1_)" d="M49.277,265.794l16.287-59.47c-10.048-17.404-15.332-37.15-15.326-57.374
		c0.026-63.277,51.525-114.757,114.801-114.757c30.711,0.014,59.535,11.966,81.207,33.657
		c21.676,21.692,33.606,50.525,33.594,81.189c-0.026,63.278-51.528,114.764-114.796,114.764c-0.005,0,0.003,0,0,0h-0.051
		c-19.213-0.007-38.091-4.829-54.857-13.967L49.277,265.794z"/>
	<linearGradient id="shape_2_1_" gradientUnits="userSpaceOnUse" x1="164.5596" y1="269.9453" x2="164.5596" y2="30.0396">
		<stop  offset="0" style="stop-color:#F9F9F9"/>
		<stop  offset="1" style="stop-color:#FFFFFF"/>
	</linearGradient>
	<path id="shape_2" fill="url(#shape_2_1_)" d="M45.142,269.945l16.871-61.602c-10.406-18.028-15.881-38.479-15.873-59.432
		C46.166,83.365,99.51,30.039,165.06,30.039c31.81,0.014,61.666,12.395,84.119,34.863c22.45,22.471,34.81,52.339,34.799,84.105
		c-0.028,65.543-53.38,118.879-118.918,118.879c-0.005,0,0.003,0,0,0h-0.052c-19.9-0.008-39.457-4.999-56.826-14.472L45.142,269.945
		z M111.103,231.894l3.611,2.141c15.173,9.003,32.567,13.766,50.307,13.774h0.039c54.477,0,98.815-44.327,98.839-98.809
		c0.007-26.403-10.262-51.229-28.924-69.904c-18.662-18.676-43.477-28.967-69.878-28.978c-54.521,0-98.857,44.321-98.879,98.802
		c-0.008,18.669,5.216,36.85,15.11,52.583l2.353,3.738l-9.987,36.46L111.103,231.894z"/>
	<path id="shape_1" fill-rule="evenodd" clip-rule="evenodd" fill="#FFFFFF" d="M135.338,99.216
		c-2.226-4.948-4.569-5.047-6.687-5.134c-1.732-0.074-3.715-0.069-5.694-0.069c-1.981,0-5.2,0.744-7.923,3.718
		c-2.725,2.974-10.401,10.161-10.401,24.779c0,14.62,10.648,28.747,12.133,30.731c1.486,1.98,20.557,32.938,50.758,44.849
		c25.101,9.898,30.208,7.93,35.656,7.435c5.448-0.496,17.579-7.187,20.056-14.125c2.477-6.938,2.477-12.884,1.733-14.127
		c-0.743-1.238-2.724-1.98-5.696-3.467c-2.971-1.485-17.579-8.675-20.303-9.665c-2.725-0.991-4.705-1.486-6.687,1.488
		c-1.981,2.972-7.672,9.663-9.406,11.644c-1.733,1.986-3.467,2.233-6.438,0.748c-2.972-1.49-12.542-4.625-23.895-14.747
		c-8.833-7.875-14.797-17.602-16.53-20.576c-1.733-2.972-0.186-4.581,1.305-6.062c1.334-1.331,2.972-3.469,4.458-5.203
		c1.482-1.735,1.978-2.974,2.969-4.955c0.99-1.983,0.495-3.719-0.248-5.205C143.754,119.786,137.979,105.092,135.338,99.216z"/>
	<g>
		<path fill="#FFFFFF" d="M369.101,137.514c-1.906,0-3.596-0.392-5.07-1.176c-1.476-0.783-2.721-1.82-3.734-3.11
			c-1.014-1.291-1.79-2.773-2.327-4.448c-0.538-1.675-0.807-3.403-0.807-5.186c0-1.505,0.214-3.026,0.646-4.562
			c0.43-1.536,1.052-3.02,1.866-4.448c0.813-1.429,1.798-2.766,2.95-4.01s2.443-2.328,3.871-3.25
			c1.43-0.922,2.973-1.651,4.633-2.188c1.658-0.538,3.41-0.807,5.254-0.807c2.889,0,5.246,0.661,7.076,1.981
			c1.826,1.321,3.018,3.042,3.57,5.162l-5.576,3.365c-0.184-0.922-0.492-1.698-0.922-2.328c-0.43-0.629-0.945-1.129-1.545-1.498
			c-0.598-0.368-1.244-0.637-1.936-0.807c-0.691-0.168-1.375-0.253-2.051-0.253c-1.721,0-3.287,0.414-4.701,1.244
			s-2.611,1.89-3.596,3.181c-0.982,1.29-1.744,2.719-2.281,4.286s-0.807,3.088-0.807,4.563c0,1.168,0.154,2.274,0.461,3.318
			c0.307,1.045,0.754,1.967,1.338,2.766c0.582,0.799,1.297,1.429,2.143,1.89c0.844,0.461,1.82,0.691,2.926,0.691
			c0.676,0,1.406-0.093,2.189-0.276c0.785-0.185,1.553-0.477,2.305-0.876c0.754-0.399,1.477-0.914,2.168-1.544
			c0.689-0.63,1.312-1.391,1.865-2.282l4.564,2.996c-0.738,1.229-1.668,2.312-2.789,3.25c-1.123,0.938-2.336,1.729-3.641,2.373
			c-1.307,0.646-2.658,1.138-4.057,1.476S370.358,137.514,369.101,137.514z"/>
		<path fill="#FFFFFF" d="M392.744,103.59h6.176l-2.996,13.966c1.199-1.566,2.597-2.772,4.194-3.618
			c1.598-0.845,3.273-1.268,5.024-1.268c1.075,0,1.974,0.146,2.696,0.438c0.722,0.292,1.306,0.691,1.752,1.198
			c0.444,0.507,0.76,1.106,0.944,1.798s0.276,1.437,0.276,2.235c0,0.614-0.038,1.244-0.115,1.89s-0.192,1.29-0.346,1.936
			l-3.18,15.072h-6.177l2.857-13.551c0.185-0.86,0.277-1.613,0.277-2.259c0-2.213-0.938-3.318-2.812-3.318
			c-0.492,0-1.045,0.123-1.659,0.368c-0.615,0.246-1.222,0.592-1.821,1.037c-0.599,0.446-1.168,0.976-1.705,1.591
			c-0.538,0.614-0.991,1.29-1.359,2.027l-2.996,14.104H385.6L392.744,103.59z"/>
		<path fill="#FFFFFF" d="M421.873,137.698c-1.353,0-2.559-0.254-3.618-0.761c-1.061-0.507-1.959-1.206-2.696-2.098
			c-0.738-0.891-1.299-1.942-1.683-3.157c-0.385-1.213-0.576-2.512-0.576-3.895c0-1.997,0.36-3.909,1.083-5.738
			c0.722-1.828,1.689-3.434,2.904-4.816c1.213-1.383,2.619-2.489,4.217-3.318c1.598-0.83,3.272-1.245,5.024-1.245
			c1.659,0,3.072,0.431,4.24,1.291c1.167,0.86,1.966,1.981,2.396,3.364l0.922-4.147h6.177l-3.596,16.961
			c-0.092,0.339-0.138,0.615-0.138,0.83c0,0.646,0.368,0.983,1.105,1.014l-1.105,5.255c-0.554,0.092-1.037,0.168-1.452,0.23
			c-0.415,0.061-0.776,0.092-1.083,0.092c-1.076,0-1.929-0.23-2.559-0.691s-0.944-1.152-0.944-2.074
			c0-0.368,0.092-0.952,0.276-1.751c-1.168,1.537-2.543,2.696-4.125,3.479C425.061,137.307,423.47,137.698,421.873,137.698z
			 M424.639,132.443c0.521,0,1.083-0.1,1.682-0.3c0.6-0.199,1.176-0.483,1.729-0.853c0.554-0.368,1.075-0.799,1.567-1.29
			c0.491-0.491,0.906-1.029,1.244-1.613l1.198-5.762c-0.184-1.352-0.722-2.473-1.612-3.364c-0.892-0.892-1.921-1.337-3.089-1.337
			c-0.983,0-1.936,0.254-2.857,0.761s-1.729,1.183-2.42,2.027c-0.691,0.846-1.244,1.798-1.659,2.858
			c-0.415,1.06-0.622,2.143-0.622,3.249c0,1.599,0.43,2.935,1.29,4.01C421.949,131.906,423.133,132.443,424.639,132.443z"/>
		<path fill="#FFFFFF" d="M446.302,113.085h5.577l-0.968,4.471c1.167-1.536,2.588-2.734,4.264-3.595
			c1.674-0.86,3.388-1.291,5.139-1.291c1.905,0,3.288,0.469,4.148,1.406s1.321,2.174,1.383,3.71c1.291-1.659,2.75-2.927,4.379-3.802
			c1.628-0.876,3.318-1.314,5.07-1.314c1.044,0,1.912,0.146,2.604,0.438s1.245,0.691,1.659,1.198
			c0.415,0.507,0.707,1.099,0.876,1.774s0.254,1.414,0.254,2.212c0,0.492-0.031,1.054-0.093,1.683
			c-0.062,0.63-0.185,1.36-0.368,2.189l-3.227,15.072h-6.177l2.858-13.551c0.092-0.461,0.168-0.899,0.23-1.314
			c0.061-0.414,0.092-0.79,0.092-1.129c0-1.075-0.224-1.866-0.668-2.374c-0.446-0.507-1.054-0.76-1.821-0.76
			c-1.137,0-2.297,0.477-3.479,1.429c-1.184,0.952-2.144,2.166-2.881,3.641l-2.95,14.059h-6.176l2.857-13.551
			c0.185-0.952,0.276-1.782,0.276-2.489c0-1.075-0.215-1.858-0.645-2.351c-0.431-0.491-1.046-0.737-1.844-0.737
			c-0.554,0-1.122,0.123-1.706,0.368c-0.584,0.246-1.16,0.592-1.729,1.037c-0.568,0.446-1.099,0.976-1.59,1.591
			c-0.492,0.614-0.922,1.29-1.29,2.027l-2.996,14.104h-6.177L446.302,113.085z"/>
		<path fill="#FFFFFF" d="M493.084,137.698c-1.536,0-2.911-0.254-4.125-0.761s-2.251-1.214-3.111-2.12s-1.514-1.982-1.958-3.227
			c-0.446-1.244-0.669-2.604-0.669-4.079c0-1.997,0.392-3.895,1.176-5.692c0.783-1.798,1.858-3.372,3.227-4.725
			c1.366-1.352,2.979-2.427,4.839-3.226s3.864-1.199,6.016-1.199c2.611,0,4.693,0.576,6.245,1.729
			c1.551,1.152,2.327,2.819,2.327,5.001c0,5.193-4.64,7.79-13.919,7.79c-0.554,0-1.122,0-1.706,0s-1.198-0.03-1.844-0.093v0.6
			c0,1.629,0.369,2.949,1.106,3.964c0.737,1.014,1.905,1.521,3.503,1.521c1.229,0,2.389-0.291,3.48-0.875
			c1.09-0.584,1.959-1.398,2.604-2.443l4.886,1.521c-0.615,0.922-1.367,1.774-2.258,2.558c-0.892,0.783-1.867,1.452-2.927,2.005
			c-1.061,0.554-2.175,0.984-3.342,1.291C495.466,137.544,494.283,137.698,493.084,137.698z M497.556,117.142
			c-0.892,0-1.722,0.161-2.489,0.483c-0.769,0.323-1.452,0.761-2.051,1.313c-0.6,0.554-1.13,1.198-1.591,1.937
			c-0.461,0.737-0.829,1.521-1.105,2.351c0.491,0.03,0.968,0.046,1.429,0.046s0.937,0,1.429,0c1.475,0,2.727-0.076,3.756-0.23
			c1.029-0.153,1.859-0.384,2.489-0.691c0.63-0.307,1.083-0.668,1.359-1.083c0.277-0.415,0.415-0.899,0.415-1.452
			c0-0.891-0.338-1.56-1.014-2.005C499.506,117.364,498.631,117.142,497.556,117.142z"/>
		<path fill="#FFFFFF" d="M528.021,137.698c-1.353,0-2.559-0.254-3.618-0.761c-1.061-0.507-1.959-1.206-2.696-2.098
			c-0.738-0.891-1.299-1.942-1.683-3.157c-0.385-1.213-0.576-2.512-0.576-3.895c0-1.997,0.36-3.909,1.083-5.738
			c0.722-1.828,1.689-3.434,2.904-4.816c1.213-1.383,2.619-2.489,4.217-3.318c1.598-0.83,3.272-1.245,5.024-1.245
			c1.659,0,3.072,0.431,4.24,1.291c1.167,0.86,1.966,1.981,2.396,3.364l0.922-4.147h6.177l-3.596,16.961
			c-0.092,0.339-0.138,0.615-0.138,0.83c0,0.646,0.368,0.983,1.105,1.014l-1.105,5.255c-0.554,0.092-1.037,0.168-1.452,0.23
			c-0.415,0.061-0.776,0.092-1.083,0.092c-1.076,0-1.929-0.23-2.559-0.691s-0.944-1.152-0.944-2.074
			c0-0.368,0.092-0.952,0.276-1.751c-1.168,1.537-2.543,2.696-4.125,3.479C531.209,137.307,529.618,137.698,528.021,137.698z
			 M530.787,132.443c0.521,0,1.083-0.1,1.682-0.3c0.6-0.199,1.176-0.483,1.729-0.853c0.554-0.368,1.075-0.799,1.567-1.29
			c0.491-0.491,0.906-1.029,1.244-1.613l1.198-5.762c-0.184-1.352-0.722-2.473-1.612-3.364c-0.892-0.892-1.921-1.337-3.089-1.337
			c-0.983,0-1.936,0.254-2.857,0.761s-1.729,1.183-2.42,2.027c-0.691,0.846-1.244,1.798-1.659,2.858
			c-0.415,1.06-0.622,2.143-0.622,3.249c0,1.599,0.43,2.935,1.29,4.01C528.098,131.906,529.281,132.443,530.787,132.443z"/>
		<path fill="#FFFFFF" d="M554.984,147.516c-2.52,0-4.556-0.438-6.107-1.313c-1.551-0.876-2.772-2.113-3.664-3.711l4.057-3.272
			c0.614,1.137,1.505,2.028,2.673,2.674c1.167,0.645,2.504,0.968,4.01,0.968c0.891,0,1.774-0.131,2.65-0.392
			c0.876-0.262,1.675-0.669,2.396-1.222s1.353-1.261,1.89-2.12c0.538-0.86,0.93-1.875,1.176-3.042l0.646-3.042
			c-1.045,1.383-2.32,2.45-3.826,3.203s-3.042,1.129-4.608,1.129c-1.291,0-2.428-0.253-3.411-0.76
			c-0.983-0.508-1.82-1.19-2.512-2.052c-0.691-0.859-1.215-1.874-1.567-3.042c-0.354-1.167-0.53-2.427-0.53-3.779
			c0-1.997,0.369-3.91,1.106-5.738s1.729-3.434,2.973-4.816s2.688-2.481,4.333-3.296c1.644-0.813,3.388-1.222,5.231-1.222
			c1.781,0,3.249,0.423,4.401,1.268c1.152,0.846,2.005,1.975,2.559,3.388l0.875-4.24h5.439l-4.933,23
			c-0.368,1.781-1.021,3.38-1.958,4.793c-0.938,1.413-2.082,2.611-3.435,3.596c-1.353,0.982-2.865,1.735-4.54,2.258
			S556.858,147.516,554.984,147.516z M559.455,132.443c1.198,0,2.374-0.398,3.526-1.198c1.152-0.799,2.066-1.751,2.742-2.857
			l1.198-5.762c-0.215-1.413-0.769-2.55-1.659-3.411c-0.892-0.859-1.921-1.29-3.088-1.29c-1.014,0-1.975,0.262-2.881,0.783
			c-0.906,0.523-1.705,1.207-2.396,2.052s-1.237,1.797-1.637,2.857c-0.399,1.06-0.599,2.128-0.599,3.203
			c0,0.8,0.115,1.537,0.346,2.213s0.553,1.267,0.968,1.774c0.415,0.507,0.914,0.906,1.498,1.198
			C558.057,132.298,558.718,132.443,559.455,132.443z"/>
		<path fill="#FFFFFF" d="M586.142,137.698c-1.629,0-3.05-0.27-4.264-0.807s-2.229-1.268-3.042-2.189
			c-0.814-0.922-1.429-1.989-1.844-3.203s-0.622-2.496-0.622-3.849c0-1.905,0.376-3.757,1.129-5.555
			c0.753-1.797,1.798-3.395,3.135-4.793c1.336-1.398,2.927-2.52,4.771-3.365c1.844-0.845,3.855-1.268,6.038-1.268
			c1.597,0,3.003,0.27,4.217,0.807c1.214,0.538,2.235,1.261,3.065,2.167c0.829,0.906,1.452,1.975,1.866,3.203
			c0.415,1.229,0.623,2.535,0.623,3.918c0,1.905-0.377,3.749-1.13,5.53c-0.753,1.783-1.798,3.373-3.134,4.771
			c-1.337,1.399-2.927,2.521-4.771,3.365S588.323,137.698,586.142,137.698z M587.248,132.443c0.952,0,1.882-0.237,2.788-0.714
			s1.713-1.113,2.42-1.913c0.706-0.799,1.274-1.743,1.705-2.835c0.431-1.09,0.646-2.25,0.646-3.479c0-1.659-0.399-3.003-1.198-4.033
			c-0.8-1.029-1.89-1.544-3.272-1.544c-0.953,0-1.883,0.238-2.789,0.714c-0.906,0.478-1.713,1.122-2.419,1.937
			c-0.708,0.814-1.276,1.759-1.706,2.834c-0.431,1.076-0.646,2.229-0.646,3.457c0,1.659,0.399,3.004,1.199,4.033
			C584.773,131.93,585.865,132.443,587.248,132.443z"/>
		<path fill="#FFFFFF" d="M607.62,113.085h5.669l-1.105,5.162c1.167-1.659,2.473-2.973,3.918-3.94
			c1.443-0.968,2.888-1.452,4.332-1.452c0.307,0,0.537,0.008,0.691,0.023c0.153,0.016,0.292,0.039,0.415,0.069l-1.152,5.484
			c-1.752,0.031-3.403,0.392-4.955,1.083s-2.773,1.729-3.664,3.111l-3.088,14.611h-6.177L607.62,113.085z"/>
		<path fill="#FFFFFF" d="M628.27,137.698c-1.353,0-2.559-0.254-3.618-0.761c-1.061-0.507-1.959-1.206-2.696-2.098
			c-0.738-0.891-1.299-1.942-1.683-3.157c-0.385-1.213-0.576-2.512-0.576-3.895c0-1.997,0.36-3.909,1.083-5.738
			c0.722-1.828,1.689-3.434,2.904-4.816c1.213-1.383,2.619-2.489,4.217-3.318c1.598-0.83,3.272-1.245,5.024-1.245
			c1.659,0,3.072,0.431,4.24,1.291c1.167,0.86,1.966,1.981,2.396,3.364l0.922-4.147h6.177l-3.596,16.961
			c-0.092,0.339-0.138,0.615-0.138,0.83c0,0.646,0.368,0.983,1.105,1.014l-1.105,5.255c-0.554,0.092-1.037,0.168-1.452,0.23
			c-0.415,0.061-0.776,0.092-1.083,0.092c-1.076,0-1.929-0.23-2.559-0.691s-0.944-1.152-0.944-2.074
			c0-0.368,0.092-0.952,0.276-1.751c-1.168,1.537-2.543,2.696-4.125,3.479C631.457,137.307,629.866,137.698,628.27,137.698z
			 M631.035,132.443c0.521,0,1.083-0.1,1.682-0.3c0.6-0.199,1.176-0.483,1.729-0.853c0.554-0.368,1.075-0.799,1.567-1.29
			c0.491-0.491,0.906-1.029,1.244-1.613l1.198-5.762c-0.184-1.352-0.722-2.473-1.612-3.364c-0.892-0.892-1.921-1.337-3.089-1.337
			c-0.983,0-1.936,0.254-2.857,0.761s-1.729,1.183-2.42,2.027c-0.691,0.846-1.244,1.798-1.659,2.858
			c-0.415,1.06-0.622,2.143-0.622,3.249c0,1.599,0.43,2.935,1.29,4.01C628.346,131.906,629.529,132.443,631.035,132.443z"/>
		<path fill="#FFFFFF" d="M313.997,168.395h5.578l-0.969,4.471c1.168-1.536,2.589-2.734,4.264-3.595s3.388-1.291,5.14-1.291
			c1.905,0,3.288,0.469,4.147,1.406c0.86,0.938,1.321,2.174,1.383,3.71c1.291-1.659,2.75-2.927,4.379-3.802
			c1.629-0.876,3.318-1.314,5.07-1.314c1.045,0,1.912,0.146,2.604,0.438s1.245,0.691,1.66,1.198
			c0.414,0.507,0.706,1.099,0.875,1.774s0.254,1.414,0.254,2.212c0,0.492-0.031,1.054-0.092,1.683
			c-0.062,0.63-0.185,1.36-0.369,2.189l-3.227,15.072h-6.176l2.857-13.551c0.092-0.461,0.168-0.899,0.23-1.314
			c0.062-0.414,0.092-0.79,0.092-1.129c0-1.075-0.223-1.866-0.668-2.374c-0.445-0.507-1.053-0.76-1.82-0.76
			c-1.137,0-2.297,0.477-3.48,1.429s-2.143,2.166-2.881,3.641l-2.949,14.059h-6.176l2.857-13.551
			c0.184-0.952,0.276-1.782,0.276-2.489c0-1.075-0.216-1.858-0.646-2.351c-0.431-0.491-1.045-0.737-1.844-0.737
			c-0.553,0-1.122,0.123-1.705,0.368c-0.584,0.246-1.16,0.592-1.729,1.037c-0.568,0.446-1.1,0.976-1.59,1.591
			c-0.492,0.614-0.922,1.29-1.291,2.027l-2.996,14.104h-6.176L313.997,168.395z"/>
		<path fill="#FFFFFF" d="M360.78,193.008c-1.537,0-2.911-0.254-4.125-0.761s-2.251-1.214-3.111-2.12s-1.514-1.982-1.959-3.227
			s-0.668-2.604-0.668-4.079c0-1.997,0.393-3.895,1.176-5.692s1.858-3.372,3.227-4.725c1.367-1.352,2.979-2.427,4.84-3.226
			c1.857-0.799,3.863-1.199,6.015-1.199c2.611,0,4.693,0.576,6.245,1.729c1.551,1.152,2.327,2.819,2.327,5.001
			c0,5.193-4.64,7.79-13.919,7.79c-0.553,0-1.123,0-1.705,0c-0.584,0-1.199-0.03-1.844-0.093v0.6c0,1.629,0.368,2.949,1.105,3.964
			c0.738,1.014,1.905,1.521,3.503,1.521c1.229,0,2.389-0.291,3.48-0.875c1.09-0.584,1.959-1.398,2.604-2.443l4.886,1.521
			c-0.615,0.922-1.367,1.774-2.258,2.558c-0.892,0.783-1.867,1.452-2.927,2.005c-1.061,0.554-2.175,0.984-3.342,1.291
			C363.161,192.854,361.979,193.008,360.78,193.008z M365.252,172.451c-0.892,0-1.722,0.161-2.489,0.483
			c-0.769,0.323-1.452,0.761-2.051,1.313c-0.6,0.554-1.129,1.198-1.59,1.937c-0.461,0.737-0.83,1.521-1.107,2.351
			c0.492,0.03,0.969,0.046,1.43,0.046s0.937,0,1.429,0c1.475,0,2.727-0.076,3.756-0.23c1.029-0.153,1.859-0.384,2.489-0.691
			c0.63-0.307,1.083-0.668,1.359-1.083c0.277-0.415,0.415-0.899,0.415-1.452c0-0.891-0.338-1.56-1.014-2.005
			C367.202,172.674,366.327,172.451,365.252,172.451z"/>
		<path fill="#FFFFFF" d="M384.056,193.008c-1.936,0-3.764-0.323-5.484-0.968c-1.722-0.646-3.104-1.567-4.148-2.766l3.088-3.872
			c2.366,2.12,4.809,3.181,7.329,3.181c1.29,0,2.305-0.276,3.042-0.83c0.737-0.553,1.106-1.32,1.106-2.305
			c0-0.675-0.331-1.205-0.991-1.59c-0.661-0.384-1.729-0.791-3.203-1.222c-1.229-0.368-2.282-0.729-3.158-1.083
			c-0.875-0.353-1.598-0.744-2.166-1.175s-0.983-0.914-1.244-1.452c-0.262-0.537-0.392-1.159-0.392-1.867
			c0-1.352,0.291-2.588,0.875-3.71c0.584-1.121,1.375-2.081,2.374-2.881c0.998-0.799,2.158-1.421,3.48-1.866
			c1.32-0.445,2.719-0.669,4.194-0.669c1.72,0,3.272,0.262,4.655,0.784c1.382,0.522,2.611,1.367,3.687,2.534l-3.272,3.733
			c-0.983-0.922-1.975-1.597-2.973-2.027c-0.999-0.431-2.021-0.646-3.065-0.646c-1.075,0-2.005,0.262-2.788,0.783
			c-0.783,0.523-1.176,1.322-1.176,2.397c0,0.645,0.292,1.137,0.876,1.475c0.583,0.339,1.567,0.707,2.95,1.106
			c2.581,0.707,4.485,1.498,5.715,2.373c1.229,0.876,1.844,2.082,1.844,3.618c0,1.322-0.276,2.528-0.829,3.618
			c-0.554,1.092-1.322,2.028-2.305,2.812c-0.984,0.784-2.159,1.399-3.526,1.844C387.183,192.784,385.685,193.008,384.056,193.008z"
			/>
		<path fill="#FFFFFF" d="M402.631,168.395h5.577l-0.968,4.471c1.167-1.536,2.588-2.734,4.264-3.595
			c1.674-0.86,3.388-1.291,5.139-1.291c1.905,0,3.288,0.469,4.148,1.406s1.321,2.174,1.383,3.71c1.291-1.659,2.75-2.927,4.379-3.802
			c1.628-0.876,3.318-1.314,5.07-1.314c1.044,0,1.912,0.146,2.604,0.438s1.245,0.691,1.659,1.198
			c0.415,0.507,0.707,1.099,0.876,1.774s0.254,1.414,0.254,2.212c0,0.492-0.031,1.054-0.093,1.683
			c-0.062,0.63-0.185,1.36-0.368,2.189l-3.227,15.072h-6.177l2.858-13.551c0.092-0.461,0.168-0.899,0.23-1.314
			c0.061-0.414,0.092-0.79,0.092-1.129c0-1.075-0.224-1.866-0.668-2.374c-0.446-0.507-1.054-0.76-1.821-0.76
			c-1.137,0-2.297,0.477-3.479,1.429c-1.184,0.952-2.144,2.166-2.881,3.641l-2.95,14.059h-6.176l2.857-13.551
			c0.185-0.952,0.276-1.782,0.276-2.489c0-1.075-0.215-1.858-0.645-2.351c-0.431-0.491-1.046-0.737-1.844-0.737
			c-0.554,0-1.122,0.123-1.706,0.368c-0.584,0.246-1.16,0.592-1.729,1.037c-0.568,0.446-1.099,0.976-1.59,1.591
			c-0.492,0.614-0.922,1.29-1.29,2.027l-2.996,14.104h-6.177L402.631,168.395z"/>
		<path fill="#FFFFFF" d="M449.275,193.008c-1.629,0-3.05-0.27-4.264-0.807s-2.229-1.268-3.042-2.189
			c-0.814-0.922-1.429-1.989-1.844-3.203s-0.622-2.496-0.622-3.849c0-1.905,0.376-3.757,1.129-5.555
			c0.753-1.797,1.798-3.395,3.135-4.793c1.336-1.398,2.927-2.52,4.771-3.365c1.844-0.845,3.855-1.268,6.038-1.268
			c1.597,0,3.003,0.27,4.217,0.807c1.214,0.538,2.235,1.261,3.065,2.167c0.829,0.906,1.452,1.975,1.866,3.203
			c0.415,1.229,0.623,2.535,0.623,3.918c0,1.905-0.377,3.749-1.13,5.53c-0.753,1.783-1.798,3.373-3.134,4.771
			c-1.337,1.399-2.927,2.521-4.771,3.365S451.457,193.008,449.275,193.008z M450.382,187.753c0.952,0,1.882-0.237,2.788-0.714
			s1.713-1.113,2.42-1.913c0.706-0.799,1.274-1.743,1.705-2.835c0.431-1.09,0.646-2.25,0.646-3.479c0-1.659-0.399-3.003-1.198-4.033
			c-0.8-1.029-1.89-1.544-3.272-1.544c-0.953,0-1.883,0.238-2.789,0.714c-0.906,0.478-1.713,1.122-2.419,1.937
			c-0.708,0.814-1.276,1.759-1.706,2.834c-0.431,1.076-0.646,2.229-0.646,3.457c0,1.659,0.399,3.004,1.199,4.033
			C447.907,187.239,448.999,187.753,450.382,187.753z"/>
		<path fill="#FFFFFF" d="M481.631,168.395h5.577l-0.968,4.471c1.167-1.536,2.643-2.734,4.425-3.595
			c1.781-0.86,3.671-1.291,5.669-1.291c1.045,0,1.913,0.146,2.604,0.438s1.244,0.684,1.659,1.175
			c0.415,0.492,0.706,1.083,0.876,1.774c0.168,0.691,0.253,1.422,0.253,2.189c0,0.615-0.038,1.253-0.115,1.913
			c-0.077,0.661-0.192,1.329-0.346,2.005l-3.18,15.072h-6.177l2.857-13.551c0.093-0.461,0.169-0.899,0.23-1.314
			c0.062-0.414,0.093-0.79,0.093-1.129c0-1.075-0.238-1.866-0.715-2.374c-0.477-0.507-1.114-0.76-1.912-0.76
			c-0.554,0-1.152,0.123-1.798,0.368c-0.646,0.246-1.275,0.592-1.89,1.037c-0.615,0.446-1.191,0.976-1.729,1.591
			c-0.538,0.614-0.991,1.29-1.359,2.027l-2.996,14.104h-6.177L481.631,168.395z"/>
		<path fill="#FFFFFF" d="M513.987,193.008c-1.629,0-3.05-0.27-4.264-0.807s-2.229-1.268-3.042-2.189
			c-0.814-0.922-1.429-1.989-1.844-3.203s-0.622-2.496-0.622-3.849c0-1.905,0.376-3.757,1.129-5.555
			c0.753-1.797,1.798-3.395,3.135-4.793c1.336-1.398,2.927-2.52,4.771-3.365c1.844-0.845,3.855-1.268,6.038-1.268
			c1.597,0,3.003,0.27,4.217,0.807c1.214,0.538,2.235,1.261,3.065,2.167c0.829,0.906,1.452,1.975,1.866,3.203
			c0.415,1.229,0.623,2.535,0.623,3.918c0,1.905-0.377,3.749-1.13,5.53c-0.753,1.783-1.798,3.373-3.134,4.771
			c-1.337,1.399-2.927,2.521-4.771,3.365S516.169,193.008,513.987,193.008z M515.094,187.753c0.952,0,1.882-0.237,2.788-0.714
			s1.713-1.113,2.42-1.913c0.706-0.799,1.274-1.743,1.705-2.835c0.431-1.09,0.646-2.25,0.646-3.479c0-1.659-0.399-3.003-1.198-4.033
			c-0.8-1.029-1.89-1.544-3.272-1.544c-0.953,0-1.883,0.238-2.789,0.714c-0.906,0.478-1.713,1.122-2.419,1.937
			c-0.708,0.814-1.276,1.759-1.706,2.834c-0.431,1.076-0.646,2.229-0.646,3.457c0,1.659,0.399,3.004,1.199,4.033
			C512.619,187.239,513.711,187.753,515.094,187.753z"/>
		<path fill="#FFFFFF" d="M543.485,159.821h6.868l3.134,25.443l5.899-10.463l-2.027-14.888h5.854l1.106,10.831l5.669-10.831h5.899
			l-8.435,14.888l1.521,10.463l13.919-25.443h6.914l-19.543,32.726h-5.301l-2.351-13.735l-8.204,13.735h-5.301L543.485,159.821z"/>
		<path fill="#FFFFFF" d="M592.85,158.899h6.176l-2.996,13.966c1.199-1.566,2.597-2.772,4.194-3.618
			c1.598-0.845,3.273-1.268,5.024-1.268c1.075,0,1.974,0.146,2.696,0.438c0.722,0.292,1.306,0.691,1.752,1.198
			c0.444,0.507,0.76,1.106,0.944,1.798s0.276,1.437,0.276,2.235c0,0.614-0.038,1.244-0.115,1.89s-0.192,1.29-0.346,1.936
			l-3.18,15.072H601.1l2.857-13.551c0.185-0.86,0.277-1.613,0.277-2.259c0-2.213-0.938-3.318-2.812-3.318
			c-0.492,0-1.045,0.123-1.659,0.368c-0.615,0.246-1.222,0.592-1.821,1.037c-0.599,0.446-1.168,0.976-1.705,1.591
			c-0.538,0.614-0.991,1.29-1.359,2.027l-2.996,14.104h-6.177L592.85,158.899z"/>
		<path fill="#FFFFFF" d="M621.979,193.008c-1.353,0-2.559-0.254-3.618-0.761c-1.061-0.507-1.959-1.206-2.696-2.098
			c-0.738-0.891-1.299-1.942-1.683-3.157c-0.385-1.213-0.576-2.512-0.576-3.895c0-1.997,0.36-3.909,1.083-5.738
			c0.722-1.828,1.689-3.434,2.904-4.816c1.213-1.383,2.619-2.489,4.217-3.318c1.598-0.83,3.272-1.245,5.024-1.245
			c1.659,0,3.072,0.431,4.24,1.291c1.167,0.86,1.966,1.981,2.396,3.364l0.922-4.147h6.177l-3.596,16.961
			c-0.092,0.339-0.138,0.615-0.138,0.83c0,0.646,0.368,0.983,1.105,1.014l-1.105,5.255c-0.554,0.092-1.037,0.168-1.452,0.23
			c-0.415,0.061-0.776,0.092-1.083,0.092c-1.076,0-1.929-0.23-2.559-0.691s-0.944-1.152-0.944-2.074
			c0-0.368,0.092-0.952,0.276-1.751c-1.168,1.537-2.543,2.696-4.125,3.479C625.167,192.616,623.576,193.008,621.979,193.008z
			 M624.745,187.753c0.521,0,1.083-0.1,1.682-0.3c0.6-0.199,1.176-0.483,1.729-0.853c0.554-0.368,1.075-0.799,1.567-1.29
			c0.491-0.491,0.906-1.029,1.244-1.613l1.198-5.762c-0.184-1.352-0.722-2.473-1.612-3.364c-0.892-0.892-1.921-1.337-3.089-1.337
			c-0.983,0-1.936,0.254-2.857,0.761s-1.729,1.183-2.42,2.027c-0.691,0.846-1.244,1.798-1.659,2.858
			c-0.415,1.06-0.622,2.143-0.622,3.249c0,1.599,0.43,2.935,1.29,4.01C622.056,187.216,623.239,187.753,624.745,187.753z"/>
		<path fill="#FFFFFF" d="M648.666,192.962c-1.475,0-2.682-0.331-3.618-0.991c-0.938-0.66-1.406-1.744-1.406-3.25
			c0-0.614,0.062-1.183,0.185-1.705l2.95-13.873h-2.996l1.014-4.748h2.95l1.659-7.835h6.176l-1.659,7.835h4.84l-1.014,4.748h-4.794
			l-2.535,11.799c-0.03,0.154-0.054,0.284-0.068,0.392c-0.017,0.108-0.023,0.224-0.023,0.346c0,0.584,0.161,0.999,0.484,1.245
			c0.322,0.246,0.744,0.368,1.267,0.368c0.615,0,1.222-0.1,1.821-0.3c0.599-0.199,1.113-0.392,1.544-0.576l0.185,4.886
			c-0.892,0.431-1.967,0.814-3.227,1.152C651.139,192.792,649.895,192.962,648.666,192.962z"/>
		<path fill="#FFFFFF" d="M667.147,193.008c-1.936,0-3.764-0.323-5.484-0.968c-1.722-0.646-3.104-1.567-4.148-2.766l3.088-3.872
			c2.366,2.12,4.809,3.181,7.329,3.181c1.29,0,2.305-0.276,3.042-0.83c0.737-0.553,1.106-1.32,1.106-2.305
			c0-0.675-0.331-1.205-0.991-1.59c-0.661-0.384-1.729-0.791-3.203-1.222c-1.229-0.368-2.282-0.729-3.158-1.083
			c-0.875-0.353-1.598-0.744-2.166-1.175s-0.983-0.914-1.244-1.452c-0.262-0.537-0.392-1.159-0.392-1.867
			c0-1.352,0.291-2.588,0.875-3.71c0.584-1.121,1.375-2.081,2.374-2.881c0.998-0.799,2.158-1.421,3.48-1.866
			c1.32-0.445,2.719-0.669,4.194-0.669c1.72,0,3.272,0.262,4.655,0.784c1.382,0.522,2.611,1.367,3.687,2.534l-3.272,3.733
			c-0.983-0.922-1.975-1.597-2.973-2.027c-0.999-0.431-2.021-0.646-3.065-0.646c-1.075,0-2.005,0.262-2.788,0.783
			c-0.783,0.523-1.176,1.322-1.176,2.397c0,0.645,0.292,1.137,0.876,1.475c0.583,0.339,1.567,0.707,2.95,1.106
			c2.581,0.707,4.485,1.498,5.715,2.373c1.229,0.876,1.844,2.082,1.844,3.618c0,1.322-0.276,2.528-0.829,3.618
			c-0.554,1.092-1.322,2.028-2.305,2.812c-0.984,0.784-2.159,1.399-3.526,1.844C670.274,192.784,668.776,193.008,667.147,193.008z"
			/>
		<path fill="#FFFFFF" d="M681.436,192.547l1.475-6.96h6.177l-1.476,6.96H681.436z M684.062,180.24l4.379-20.741h6.176
			l-4.378,20.741H684.062z"/>
	</g>
</g>
</svg>
